%TF.GenerationSoftware,KiCad,Pcbnew,(5.1.6)-1*%
%TF.CreationDate,2020-08-30T19:00:44+08:00*%
%TF.ProjectId,tftesp8266,74667465-7370-4383-9236-362e6b696361,rev?*%
%TF.SameCoordinates,Original*%
%TF.FileFunction,Soldermask,Bot*%
%TF.FilePolarity,Negative*%
%FSLAX46Y46*%
G04 Gerber Fmt 4.6, Leading zero omitted, Abs format (unit mm)*
G04 Created by KiCad (PCBNEW (5.1.6)-1) date 2020-08-30 19:00:44*
%MOMM*%
%LPD*%
G01*
G04 APERTURE LIST*
%ADD10C,0.900000*%
%ADD11C,6.500000*%
%ADD12C,1.000000*%
%ADD13R,4.100000X3.100000*%
%ADD14O,2.000000X1.300000*%
%ADD15C,1.550000*%
G04 APERTURE END LIST*
D10*
%TO.C,REF\u002A\u002A*%
X188697056Y-121302944D03*
X187000000Y-120600000D03*
X185302944Y-121302944D03*
X184600000Y-123000000D03*
X185302944Y-124697056D03*
X187000000Y-125400000D03*
X188697056Y-124697056D03*
X189400000Y-123000000D03*
D11*
X187000000Y-123000000D03*
%TD*%
D10*
%TO.C,REF\u002A\u002A*%
X103697056Y-121302944D03*
X102000000Y-120600000D03*
X100302944Y-121302944D03*
X99600000Y-123000000D03*
X100302944Y-124697056D03*
X102000000Y-125400000D03*
X103697056Y-124697056D03*
X104400000Y-123000000D03*
D11*
X102000000Y-123000000D03*
%TD*%
D10*
%TO.C,REF\u002A\u002A*%
X188697056Y-47302944D03*
X187000000Y-46600000D03*
X185302944Y-47302944D03*
X184600000Y-49000000D03*
X185302944Y-50697056D03*
X187000000Y-51400000D03*
X188697056Y-50697056D03*
X189400000Y-49000000D03*
D11*
X187000000Y-49000000D03*
%TD*%
D10*
%TO.C,REF\u002A\u002A*%
X103697056Y-47302944D03*
X102000000Y-46600000D03*
X100302944Y-47302944D03*
X99600000Y-49000000D03*
X100302944Y-50697056D03*
X102000000Y-51400000D03*
X103697056Y-50697056D03*
X104400000Y-49000000D03*
D11*
X102000000Y-49000000D03*
%TD*%
D12*
%TO.C,SW3*%
X190200000Y-110500000D03*
X190200000Y-113500000D03*
%TD*%
D13*
%TO.C,BT1*%
X169200000Y-112400000D03*
X174700000Y-112400000D03*
%TD*%
D14*
%TO.C,J1*%
X189637500Y-85500000D03*
X189637500Y-92500000D03*
D15*
X186937500Y-86500000D03*
X186937500Y-91500000D03*
%TD*%
M02*
