%TF.GenerationSoftware,KiCad,Pcbnew,(5.1.6)-1*%
%TF.CreationDate,2020-08-30T19:00:44+08:00*%
%TF.ProjectId,tftesp8266,74667465-7370-4383-9236-362e6b696361,rev?*%
%TF.SameCoordinates,Original*%
%TF.FileFunction,Soldermask,Top*%
%TF.FilePolarity,Negative*%
%FSLAX46Y46*%
G04 Gerber Fmt 4.6, Leading zero omitted, Abs format (unit mm)*
G04 Created by KiCad (PCBNEW (5.1.6)-1) date 2020-08-30 19:00:44*
%MOMM*%
%LPD*%
G01*
G04 APERTURE LIST*
%ADD10C,0.900000*%
%ADD11C,6.500000*%
%ADD12R,0.900000X1.100000*%
%ADD13R,1.600000X0.800000*%
%ADD14C,1.000000*%
%ADD15R,1.000000X0.900000*%
%ADD16R,0.900000X1.000000*%
%ADD17R,2.600000X1.100000*%
%ADD18R,1.100000X1.900000*%
%ADD19R,2.510000X3.200000*%
%ADD20R,1.160000X0.750000*%
%ADD21R,1.600000X1.600000*%
%ADD22R,1.400000X0.400000*%
%ADD23R,2.300000X1.900000*%
%ADD24O,2.000000X1.300000*%
%ADD25C,1.550000*%
%ADD26R,1.450000X0.500000*%
G04 APERTURE END LIST*
D10*
%TO.C,REF\u002A\u002A*%
X188697056Y-121302944D03*
X187000000Y-120600000D03*
X185302944Y-121302944D03*
X184600000Y-123000000D03*
X185302944Y-124697056D03*
X187000000Y-125400000D03*
X188697056Y-124697056D03*
X189400000Y-123000000D03*
D11*
X187000000Y-123000000D03*
%TD*%
D10*
%TO.C,REF\u002A\u002A*%
X103697056Y-121302944D03*
X102000000Y-120600000D03*
X100302944Y-121302944D03*
X99600000Y-123000000D03*
X100302944Y-124697056D03*
X102000000Y-125400000D03*
X103697056Y-124697056D03*
X104400000Y-123000000D03*
D11*
X102000000Y-123000000D03*
%TD*%
D10*
%TO.C,REF\u002A\u002A*%
X188697056Y-47302944D03*
X187000000Y-46600000D03*
X185302944Y-47302944D03*
X184600000Y-49000000D03*
X185302944Y-50697056D03*
X187000000Y-51400000D03*
X188697056Y-50697056D03*
X189400000Y-49000000D03*
D11*
X187000000Y-49000000D03*
%TD*%
D10*
%TO.C,REF\u002A\u002A*%
X103697056Y-47302944D03*
X102000000Y-46600000D03*
X100302944Y-47302944D03*
X99600000Y-49000000D03*
X100302944Y-50697056D03*
X102000000Y-51400000D03*
X103697056Y-50697056D03*
X104400000Y-49000000D03*
D11*
X102000000Y-49000000D03*
%TD*%
D12*
%TO.C,SW3*%
X189090000Y-115650000D03*
X189090000Y-108350000D03*
X191300000Y-108350000D03*
X191300000Y-115650000D03*
D13*
X188440000Y-109750000D03*
X188440000Y-111250000D03*
X188440000Y-114250000D03*
D14*
X190200000Y-110500000D03*
X190200000Y-113500000D03*
%TD*%
D15*
%TO.C,Q3*%
X153800000Y-93300000D03*
X155800000Y-92350000D03*
X155800000Y-94250000D03*
%TD*%
D16*
%TO.C,Q2*%
X172600000Y-77000000D03*
X171650000Y-75000000D03*
X173550000Y-75000000D03*
%TD*%
%TO.C,Q1*%
X182000000Y-77000000D03*
X181050000Y-75000000D03*
X182950000Y-75000000D03*
%TD*%
D17*
%TO.C,U4*%
X164600000Y-64500000D03*
X164600000Y-66500000D03*
X164600000Y-68500000D03*
X164600000Y-70500000D03*
X164600000Y-72500000D03*
X164600000Y-74500000D03*
X164600000Y-76500000D03*
X164600000Y-78500000D03*
D18*
X162000000Y-80000000D03*
X160000000Y-80000000D03*
X158000000Y-80000000D03*
X156000000Y-80000000D03*
X154000000Y-80000000D03*
X152000000Y-80000000D03*
D17*
X149400000Y-78500000D03*
X149400000Y-76500000D03*
X149400000Y-74500000D03*
X149400000Y-72500000D03*
X149400000Y-70500000D03*
X149400000Y-68500000D03*
X149400000Y-66500000D03*
X149400000Y-64500000D03*
%TD*%
%TO.C,U3*%
G36*
G01*
X180470000Y-69550000D02*
X180820000Y-69550000D01*
G75*
G02*
X180995000Y-69725000I0J-175000D01*
G01*
X180995000Y-71425000D01*
G75*
G02*
X180820000Y-71600000I-175000J0D01*
G01*
X180470000Y-71600000D01*
G75*
G02*
X180295000Y-71425000I0J175000D01*
G01*
X180295000Y-69725000D01*
G75*
G02*
X180470000Y-69550000I175000J0D01*
G01*
G37*
G36*
G01*
X179200000Y-69550000D02*
X179550000Y-69550000D01*
G75*
G02*
X179725000Y-69725000I0J-175000D01*
G01*
X179725000Y-71425000D01*
G75*
G02*
X179550000Y-71600000I-175000J0D01*
G01*
X179200000Y-71600000D01*
G75*
G02*
X179025000Y-71425000I0J175000D01*
G01*
X179025000Y-69725000D01*
G75*
G02*
X179200000Y-69550000I175000J0D01*
G01*
G37*
G36*
G01*
X177930000Y-69550000D02*
X178280000Y-69550000D01*
G75*
G02*
X178455000Y-69725000I0J-175000D01*
G01*
X178455000Y-71425000D01*
G75*
G02*
X178280000Y-71600000I-175000J0D01*
G01*
X177930000Y-71600000D01*
G75*
G02*
X177755000Y-71425000I0J175000D01*
G01*
X177755000Y-69725000D01*
G75*
G02*
X177930000Y-69550000I175000J0D01*
G01*
G37*
G36*
G01*
X176660000Y-69550000D02*
X177010000Y-69550000D01*
G75*
G02*
X177185000Y-69725000I0J-175000D01*
G01*
X177185000Y-71425000D01*
G75*
G02*
X177010000Y-71600000I-175000J0D01*
G01*
X176660000Y-71600000D01*
G75*
G02*
X176485000Y-71425000I0J175000D01*
G01*
X176485000Y-69725000D01*
G75*
G02*
X176660000Y-69550000I175000J0D01*
G01*
G37*
G36*
G01*
X175390000Y-69550000D02*
X175740000Y-69550000D01*
G75*
G02*
X175915000Y-69725000I0J-175000D01*
G01*
X175915000Y-71425000D01*
G75*
G02*
X175740000Y-71600000I-175000J0D01*
G01*
X175390000Y-71600000D01*
G75*
G02*
X175215000Y-71425000I0J175000D01*
G01*
X175215000Y-69725000D01*
G75*
G02*
X175390000Y-69550000I175000J0D01*
G01*
G37*
G36*
G01*
X174120000Y-69550000D02*
X174470000Y-69550000D01*
G75*
G02*
X174645000Y-69725000I0J-175000D01*
G01*
X174645000Y-71425000D01*
G75*
G02*
X174470000Y-71600000I-175000J0D01*
G01*
X174120000Y-71600000D01*
G75*
G02*
X173945000Y-71425000I0J175000D01*
G01*
X173945000Y-69725000D01*
G75*
G02*
X174120000Y-69550000I175000J0D01*
G01*
G37*
G36*
G01*
X172850000Y-69550000D02*
X173200000Y-69550000D01*
G75*
G02*
X173375000Y-69725000I0J-175000D01*
G01*
X173375000Y-71425000D01*
G75*
G02*
X173200000Y-71600000I-175000J0D01*
G01*
X172850000Y-71600000D01*
G75*
G02*
X172675000Y-71425000I0J175000D01*
G01*
X172675000Y-69725000D01*
G75*
G02*
X172850000Y-69550000I175000J0D01*
G01*
G37*
G36*
G01*
X171580000Y-69550000D02*
X171930000Y-69550000D01*
G75*
G02*
X172105000Y-69725000I0J-175000D01*
G01*
X172105000Y-71425000D01*
G75*
G02*
X171930000Y-71600000I-175000J0D01*
G01*
X171580000Y-71600000D01*
G75*
G02*
X171405000Y-71425000I0J175000D01*
G01*
X171405000Y-69725000D01*
G75*
G02*
X171580000Y-69550000I175000J0D01*
G01*
G37*
G36*
G01*
X171580000Y-64600000D02*
X171930000Y-64600000D01*
G75*
G02*
X172105000Y-64775000I0J-175000D01*
G01*
X172105000Y-66475000D01*
G75*
G02*
X171930000Y-66650000I-175000J0D01*
G01*
X171580000Y-66650000D01*
G75*
G02*
X171405000Y-66475000I0J175000D01*
G01*
X171405000Y-64775000D01*
G75*
G02*
X171580000Y-64600000I175000J0D01*
G01*
G37*
G36*
G01*
X172850000Y-64600000D02*
X173200000Y-64600000D01*
G75*
G02*
X173375000Y-64775000I0J-175000D01*
G01*
X173375000Y-66475000D01*
G75*
G02*
X173200000Y-66650000I-175000J0D01*
G01*
X172850000Y-66650000D01*
G75*
G02*
X172675000Y-66475000I0J175000D01*
G01*
X172675000Y-64775000D01*
G75*
G02*
X172850000Y-64600000I175000J0D01*
G01*
G37*
G36*
G01*
X174120000Y-64600000D02*
X174470000Y-64600000D01*
G75*
G02*
X174645000Y-64775000I0J-175000D01*
G01*
X174645000Y-66475000D01*
G75*
G02*
X174470000Y-66650000I-175000J0D01*
G01*
X174120000Y-66650000D01*
G75*
G02*
X173945000Y-66475000I0J175000D01*
G01*
X173945000Y-64775000D01*
G75*
G02*
X174120000Y-64600000I175000J0D01*
G01*
G37*
G36*
G01*
X175390000Y-64600000D02*
X175740000Y-64600000D01*
G75*
G02*
X175915000Y-64775000I0J-175000D01*
G01*
X175915000Y-66475000D01*
G75*
G02*
X175740000Y-66650000I-175000J0D01*
G01*
X175390000Y-66650000D01*
G75*
G02*
X175215000Y-66475000I0J175000D01*
G01*
X175215000Y-64775000D01*
G75*
G02*
X175390000Y-64600000I175000J0D01*
G01*
G37*
G36*
G01*
X176660000Y-64600000D02*
X177010000Y-64600000D01*
G75*
G02*
X177185000Y-64775000I0J-175000D01*
G01*
X177185000Y-66475000D01*
G75*
G02*
X177010000Y-66650000I-175000J0D01*
G01*
X176660000Y-66650000D01*
G75*
G02*
X176485000Y-66475000I0J175000D01*
G01*
X176485000Y-64775000D01*
G75*
G02*
X176660000Y-64600000I175000J0D01*
G01*
G37*
G36*
G01*
X177930000Y-64600000D02*
X178280000Y-64600000D01*
G75*
G02*
X178455000Y-64775000I0J-175000D01*
G01*
X178455000Y-66475000D01*
G75*
G02*
X178280000Y-66650000I-175000J0D01*
G01*
X177930000Y-66650000D01*
G75*
G02*
X177755000Y-66475000I0J175000D01*
G01*
X177755000Y-64775000D01*
G75*
G02*
X177930000Y-64600000I175000J0D01*
G01*
G37*
G36*
G01*
X179200000Y-64600000D02*
X179550000Y-64600000D01*
G75*
G02*
X179725000Y-64775000I0J-175000D01*
G01*
X179725000Y-66475000D01*
G75*
G02*
X179550000Y-66650000I-175000J0D01*
G01*
X179200000Y-66650000D01*
G75*
G02*
X179025000Y-66475000I0J175000D01*
G01*
X179025000Y-64775000D01*
G75*
G02*
X179200000Y-64600000I175000J0D01*
G01*
G37*
G36*
G01*
X180470000Y-64600000D02*
X180820000Y-64600000D01*
G75*
G02*
X180995000Y-64775000I0J-175000D01*
G01*
X180995000Y-66475000D01*
G75*
G02*
X180820000Y-66650000I-175000J0D01*
G01*
X180470000Y-66650000D01*
G75*
G02*
X180295000Y-66475000I0J175000D01*
G01*
X180295000Y-64775000D01*
G75*
G02*
X180470000Y-64600000I175000J0D01*
G01*
G37*
%TD*%
D19*
%TO.C,U2*%
X172115000Y-106525001D03*
G36*
G01*
X173915000Y-104795001D02*
X173915000Y-104445001D01*
G75*
G02*
X174090000Y-104270001I175000J0D01*
G01*
X175440000Y-104270001D01*
G75*
G02*
X175615000Y-104445001I0J-175000D01*
G01*
X175615000Y-104795001D01*
G75*
G02*
X175440000Y-104970001I-175000J0D01*
G01*
X174090000Y-104970001D01*
G75*
G02*
X173915000Y-104795001I0J175000D01*
G01*
G37*
G36*
G01*
X173915000Y-106065001D02*
X173915000Y-105715001D01*
G75*
G02*
X174090000Y-105540001I175000J0D01*
G01*
X175440000Y-105540001D01*
G75*
G02*
X175615000Y-105715001I0J-175000D01*
G01*
X175615000Y-106065001D01*
G75*
G02*
X175440000Y-106240001I-175000J0D01*
G01*
X174090000Y-106240001D01*
G75*
G02*
X173915000Y-106065001I0J175000D01*
G01*
G37*
G36*
G01*
X173915000Y-107335001D02*
X173915000Y-106985001D01*
G75*
G02*
X174090000Y-106810001I175000J0D01*
G01*
X175440000Y-106810001D01*
G75*
G02*
X175615000Y-106985001I0J-175000D01*
G01*
X175615000Y-107335001D01*
G75*
G02*
X175440000Y-107510001I-175000J0D01*
G01*
X174090000Y-107510001D01*
G75*
G02*
X173915000Y-107335001I0J175000D01*
G01*
G37*
G36*
G01*
X173915000Y-108605001D02*
X173915000Y-108255001D01*
G75*
G02*
X174090000Y-108080001I175000J0D01*
G01*
X175440000Y-108080001D01*
G75*
G02*
X175615000Y-108255001I0J-175000D01*
G01*
X175615000Y-108605001D01*
G75*
G02*
X175440000Y-108780001I-175000J0D01*
G01*
X174090000Y-108780001D01*
G75*
G02*
X173915000Y-108605001I0J175000D01*
G01*
G37*
G36*
G01*
X168615000Y-108605001D02*
X168615000Y-108255001D01*
G75*
G02*
X168790000Y-108080001I175000J0D01*
G01*
X170140000Y-108080001D01*
G75*
G02*
X170315000Y-108255001I0J-175000D01*
G01*
X170315000Y-108605001D01*
G75*
G02*
X170140000Y-108780001I-175000J0D01*
G01*
X168790000Y-108780001D01*
G75*
G02*
X168615000Y-108605001I0J175000D01*
G01*
G37*
G36*
G01*
X168615000Y-107335001D02*
X168615000Y-106985001D01*
G75*
G02*
X168790000Y-106810001I175000J0D01*
G01*
X170140000Y-106810001D01*
G75*
G02*
X170315000Y-106985001I0J-175000D01*
G01*
X170315000Y-107335001D01*
G75*
G02*
X170140000Y-107510001I-175000J0D01*
G01*
X168790000Y-107510001D01*
G75*
G02*
X168615000Y-107335001I0J175000D01*
G01*
G37*
G36*
G01*
X168615000Y-106065001D02*
X168615000Y-105715001D01*
G75*
G02*
X168790000Y-105540001I175000J0D01*
G01*
X170140000Y-105540001D01*
G75*
G02*
X170315000Y-105715001I0J-175000D01*
G01*
X170315000Y-106065001D01*
G75*
G02*
X170140000Y-106240001I-175000J0D01*
G01*
X168790000Y-106240001D01*
G75*
G02*
X168615000Y-106065001I0J175000D01*
G01*
G37*
G36*
G01*
X168615000Y-104795001D02*
X168615000Y-104445001D01*
G75*
G02*
X168790000Y-104270001I175000J0D01*
G01*
X170140000Y-104270001D01*
G75*
G02*
X170315000Y-104445001I0J-175000D01*
G01*
X170315000Y-104795001D01*
G75*
G02*
X170140000Y-104970001I-175000J0D01*
G01*
X168790000Y-104970001D01*
G75*
G02*
X168615000Y-104795001I0J175000D01*
G01*
G37*
%TD*%
D20*
%TO.C,U1*%
X175905000Y-92900000D03*
X175905000Y-91000000D03*
X178105000Y-91000000D03*
X178105000Y-91950000D03*
X178105000Y-92900000D03*
%TD*%
D21*
%TO.C,SW2*%
X164100000Y-114200000D03*
X156300000Y-114200000D03*
%TD*%
%TO.C,SW1*%
X152800000Y-114300000D03*
X145000000Y-114300000D03*
%TD*%
%TO.C,R21*%
G36*
G01*
X150375000Y-94762500D02*
X150375000Y-94237500D01*
G75*
G02*
X150637500Y-93975000I262500J0D01*
G01*
X151262500Y-93975000D01*
G75*
G02*
X151525000Y-94237500I0J-262500D01*
G01*
X151525000Y-94762500D01*
G75*
G02*
X151262500Y-95025000I-262500J0D01*
G01*
X150637500Y-95025000D01*
G75*
G02*
X150375000Y-94762500I0J262500D01*
G01*
G37*
G36*
G01*
X148625000Y-94762500D02*
X148625000Y-94237500D01*
G75*
G02*
X148887500Y-93975000I262500J0D01*
G01*
X149512500Y-93975000D01*
G75*
G02*
X149775000Y-94237500I0J-262500D01*
G01*
X149775000Y-94762500D01*
G75*
G02*
X149512500Y-95025000I-262500J0D01*
G01*
X148887500Y-95025000D01*
G75*
G02*
X148625000Y-94762500I0J262500D01*
G01*
G37*
%TD*%
%TO.C,R20*%
G36*
G01*
X150375000Y-92762500D02*
X150375000Y-92237500D01*
G75*
G02*
X150637500Y-91975000I262500J0D01*
G01*
X151262500Y-91975000D01*
G75*
G02*
X151525000Y-92237500I0J-262500D01*
G01*
X151525000Y-92762500D01*
G75*
G02*
X151262500Y-93025000I-262500J0D01*
G01*
X150637500Y-93025000D01*
G75*
G02*
X150375000Y-92762500I0J262500D01*
G01*
G37*
G36*
G01*
X148625000Y-92762500D02*
X148625000Y-92237500D01*
G75*
G02*
X148887500Y-91975000I262500J0D01*
G01*
X149512500Y-91975000D01*
G75*
G02*
X149775000Y-92237500I0J-262500D01*
G01*
X149775000Y-92762500D01*
G75*
G02*
X149512500Y-93025000I-262500J0D01*
G01*
X148887500Y-93025000D01*
G75*
G02*
X148625000Y-92762500I0J262500D01*
G01*
G37*
%TD*%
%TO.C,R19*%
G36*
G01*
X150425000Y-90762500D02*
X150425000Y-90237500D01*
G75*
G02*
X150687500Y-89975000I262500J0D01*
G01*
X151312500Y-89975000D01*
G75*
G02*
X151575000Y-90237500I0J-262500D01*
G01*
X151575000Y-90762500D01*
G75*
G02*
X151312500Y-91025000I-262500J0D01*
G01*
X150687500Y-91025000D01*
G75*
G02*
X150425000Y-90762500I0J262500D01*
G01*
G37*
G36*
G01*
X148675000Y-90762500D02*
X148675000Y-90237500D01*
G75*
G02*
X148937500Y-89975000I262500J0D01*
G01*
X149562500Y-89975000D01*
G75*
G02*
X149825000Y-90237500I0J-262500D01*
G01*
X149825000Y-90762500D01*
G75*
G02*
X149562500Y-91025000I-262500J0D01*
G01*
X148937500Y-91025000D01*
G75*
G02*
X148675000Y-90762500I0J262500D01*
G01*
G37*
%TD*%
%TO.C,R18*%
G36*
G01*
X154575000Y-87437500D02*
X154575000Y-87962500D01*
G75*
G02*
X154312500Y-88225000I-262500J0D01*
G01*
X153687500Y-88225000D01*
G75*
G02*
X153425000Y-87962500I0J262500D01*
G01*
X153425000Y-87437500D01*
G75*
G02*
X153687500Y-87175000I262500J0D01*
G01*
X154312500Y-87175000D01*
G75*
G02*
X154575000Y-87437500I0J-262500D01*
G01*
G37*
G36*
G01*
X156325000Y-87437500D02*
X156325000Y-87962500D01*
G75*
G02*
X156062500Y-88225000I-262500J0D01*
G01*
X155437500Y-88225000D01*
G75*
G02*
X155175000Y-87962500I0J262500D01*
G01*
X155175000Y-87437500D01*
G75*
G02*
X155437500Y-87175000I262500J0D01*
G01*
X156062500Y-87175000D01*
G75*
G02*
X156325000Y-87437500I0J-262500D01*
G01*
G37*
%TD*%
%TO.C,R17*%
G36*
G01*
X154575000Y-89637500D02*
X154575000Y-90162500D01*
G75*
G02*
X154312500Y-90425000I-262500J0D01*
G01*
X153687500Y-90425000D01*
G75*
G02*
X153425000Y-90162500I0J262500D01*
G01*
X153425000Y-89637500D01*
G75*
G02*
X153687500Y-89375000I262500J0D01*
G01*
X154312500Y-89375000D01*
G75*
G02*
X154575000Y-89637500I0J-262500D01*
G01*
G37*
G36*
G01*
X156325000Y-89637500D02*
X156325000Y-90162500D01*
G75*
G02*
X156062500Y-90425000I-262500J0D01*
G01*
X155437500Y-90425000D01*
G75*
G02*
X155175000Y-90162500I0J262500D01*
G01*
X155175000Y-89637500D01*
G75*
G02*
X155437500Y-89375000I262500J0D01*
G01*
X156062500Y-89375000D01*
G75*
G02*
X156325000Y-89637500I0J-262500D01*
G01*
G37*
%TD*%
%TO.C,R16*%
G36*
G01*
X160300000Y-109262500D02*
X160300000Y-108737500D01*
G75*
G02*
X160562500Y-108475000I262500J0D01*
G01*
X161187500Y-108475000D01*
G75*
G02*
X161450000Y-108737500I0J-262500D01*
G01*
X161450000Y-109262500D01*
G75*
G02*
X161187500Y-109525000I-262500J0D01*
G01*
X160562500Y-109525000D01*
G75*
G02*
X160300000Y-109262500I0J262500D01*
G01*
G37*
G36*
G01*
X158550000Y-109262500D02*
X158550000Y-108737500D01*
G75*
G02*
X158812500Y-108475000I262500J0D01*
G01*
X159437500Y-108475000D01*
G75*
G02*
X159700000Y-108737500I0J-262500D01*
G01*
X159700000Y-109262500D01*
G75*
G02*
X159437500Y-109525000I-262500J0D01*
G01*
X158812500Y-109525000D01*
G75*
G02*
X158550000Y-109262500I0J262500D01*
G01*
G37*
%TD*%
%TO.C,R15*%
G36*
G01*
X178262500Y-75625000D02*
X177737500Y-75625000D01*
G75*
G02*
X177475000Y-75362500I0J262500D01*
G01*
X177475000Y-74737500D01*
G75*
G02*
X177737500Y-74475000I262500J0D01*
G01*
X178262500Y-74475000D01*
G75*
G02*
X178525000Y-74737500I0J-262500D01*
G01*
X178525000Y-75362500D01*
G75*
G02*
X178262500Y-75625000I-262500J0D01*
G01*
G37*
G36*
G01*
X178262500Y-77375000D02*
X177737500Y-77375000D01*
G75*
G02*
X177475000Y-77112500I0J262500D01*
G01*
X177475000Y-76487500D01*
G75*
G02*
X177737500Y-76225000I262500J0D01*
G01*
X178262500Y-76225000D01*
G75*
G02*
X178525000Y-76487500I0J-262500D01*
G01*
X178525000Y-77112500D01*
G75*
G02*
X178262500Y-77375000I-262500J0D01*
G01*
G37*
%TD*%
%TO.C,R14*%
G36*
G01*
X175737500Y-76225000D02*
X176262500Y-76225000D01*
G75*
G02*
X176525000Y-76487500I0J-262500D01*
G01*
X176525000Y-77112500D01*
G75*
G02*
X176262500Y-77375000I-262500J0D01*
G01*
X175737500Y-77375000D01*
G75*
G02*
X175475000Y-77112500I0J262500D01*
G01*
X175475000Y-76487500D01*
G75*
G02*
X175737500Y-76225000I262500J0D01*
G01*
G37*
G36*
G01*
X175737500Y-74475000D02*
X176262500Y-74475000D01*
G75*
G02*
X176525000Y-74737500I0J-262500D01*
G01*
X176525000Y-75362500D01*
G75*
G02*
X176262500Y-75625000I-262500J0D01*
G01*
X175737500Y-75625000D01*
G75*
G02*
X175475000Y-75362500I0J262500D01*
G01*
X175475000Y-74737500D01*
G75*
G02*
X175737500Y-74475000I262500J0D01*
G01*
G37*
%TD*%
%TO.C,R13*%
G36*
G01*
X145525000Y-109962500D02*
X145525000Y-109437500D01*
G75*
G02*
X145787500Y-109175000I262500J0D01*
G01*
X146412500Y-109175000D01*
G75*
G02*
X146675000Y-109437500I0J-262500D01*
G01*
X146675000Y-109962500D01*
G75*
G02*
X146412500Y-110225000I-262500J0D01*
G01*
X145787500Y-110225000D01*
G75*
G02*
X145525000Y-109962500I0J262500D01*
G01*
G37*
G36*
G01*
X143775000Y-109962500D02*
X143775000Y-109437500D01*
G75*
G02*
X144037500Y-109175000I262500J0D01*
G01*
X144662500Y-109175000D01*
G75*
G02*
X144925000Y-109437500I0J-262500D01*
G01*
X144925000Y-109962500D01*
G75*
G02*
X144662500Y-110225000I-262500J0D01*
G01*
X144037500Y-110225000D01*
G75*
G02*
X143775000Y-109962500I0J262500D01*
G01*
G37*
%TD*%
%TO.C,R12*%
G36*
G01*
X143425000Y-67262500D02*
X143425000Y-66737500D01*
G75*
G02*
X143687500Y-66475000I262500J0D01*
G01*
X144312500Y-66475000D01*
G75*
G02*
X144575000Y-66737500I0J-262500D01*
G01*
X144575000Y-67262500D01*
G75*
G02*
X144312500Y-67525000I-262500J0D01*
G01*
X143687500Y-67525000D01*
G75*
G02*
X143425000Y-67262500I0J262500D01*
G01*
G37*
G36*
G01*
X141675000Y-67262500D02*
X141675000Y-66737500D01*
G75*
G02*
X141937500Y-66475000I262500J0D01*
G01*
X142562500Y-66475000D01*
G75*
G02*
X142825000Y-66737500I0J-262500D01*
G01*
X142825000Y-67262500D01*
G75*
G02*
X142562500Y-67525000I-262500J0D01*
G01*
X141937500Y-67525000D01*
G75*
G02*
X141675000Y-67262500I0J262500D01*
G01*
G37*
%TD*%
%TO.C,R11*%
G36*
G01*
X143425000Y-61262500D02*
X143425000Y-60737500D01*
G75*
G02*
X143687500Y-60475000I262500J0D01*
G01*
X144312500Y-60475000D01*
G75*
G02*
X144575000Y-60737500I0J-262500D01*
G01*
X144575000Y-61262500D01*
G75*
G02*
X144312500Y-61525000I-262500J0D01*
G01*
X143687500Y-61525000D01*
G75*
G02*
X143425000Y-61262500I0J262500D01*
G01*
G37*
G36*
G01*
X141675000Y-61262500D02*
X141675000Y-60737500D01*
G75*
G02*
X141937500Y-60475000I262500J0D01*
G01*
X142562500Y-60475000D01*
G75*
G02*
X142825000Y-60737500I0J-262500D01*
G01*
X142825000Y-61262500D01*
G75*
G02*
X142562500Y-61525000I-262500J0D01*
G01*
X141937500Y-61525000D01*
G75*
G02*
X141675000Y-61262500I0J262500D01*
G01*
G37*
%TD*%
%TO.C,R10*%
G36*
G01*
X143425000Y-63062500D02*
X143425000Y-62537500D01*
G75*
G02*
X143687500Y-62275000I262500J0D01*
G01*
X144312500Y-62275000D01*
G75*
G02*
X144575000Y-62537500I0J-262500D01*
G01*
X144575000Y-63062500D01*
G75*
G02*
X144312500Y-63325000I-262500J0D01*
G01*
X143687500Y-63325000D01*
G75*
G02*
X143425000Y-63062500I0J262500D01*
G01*
G37*
G36*
G01*
X141675000Y-63062500D02*
X141675000Y-62537500D01*
G75*
G02*
X141937500Y-62275000I262500J0D01*
G01*
X142562500Y-62275000D01*
G75*
G02*
X142825000Y-62537500I0J-262500D01*
G01*
X142825000Y-63062500D01*
G75*
G02*
X142562500Y-63325000I-262500J0D01*
G01*
X141937500Y-63325000D01*
G75*
G02*
X141675000Y-63062500I0J262500D01*
G01*
G37*
%TD*%
%TO.C,R9*%
G36*
G01*
X143425000Y-59262500D02*
X143425000Y-58737500D01*
G75*
G02*
X143687500Y-58475000I262500J0D01*
G01*
X144312500Y-58475000D01*
G75*
G02*
X144575000Y-58737500I0J-262500D01*
G01*
X144575000Y-59262500D01*
G75*
G02*
X144312500Y-59525000I-262500J0D01*
G01*
X143687500Y-59525000D01*
G75*
G02*
X143425000Y-59262500I0J262500D01*
G01*
G37*
G36*
G01*
X141675000Y-59262500D02*
X141675000Y-58737500D01*
G75*
G02*
X141937500Y-58475000I262500J0D01*
G01*
X142562500Y-58475000D01*
G75*
G02*
X142825000Y-58737500I0J-262500D01*
G01*
X142825000Y-59262500D01*
G75*
G02*
X142562500Y-59525000I-262500J0D01*
G01*
X141937500Y-59525000D01*
G75*
G02*
X141675000Y-59262500I0J262500D01*
G01*
G37*
%TD*%
%TO.C,R8*%
G36*
G01*
X143425000Y-57262500D02*
X143425000Y-56737500D01*
G75*
G02*
X143687500Y-56475000I262500J0D01*
G01*
X144312500Y-56475000D01*
G75*
G02*
X144575000Y-56737500I0J-262500D01*
G01*
X144575000Y-57262500D01*
G75*
G02*
X144312500Y-57525000I-262500J0D01*
G01*
X143687500Y-57525000D01*
G75*
G02*
X143425000Y-57262500I0J262500D01*
G01*
G37*
G36*
G01*
X141675000Y-57262500D02*
X141675000Y-56737500D01*
G75*
G02*
X141937500Y-56475000I262500J0D01*
G01*
X142562500Y-56475000D01*
G75*
G02*
X142825000Y-56737500I0J-262500D01*
G01*
X142825000Y-57262500D01*
G75*
G02*
X142562500Y-57525000I-262500J0D01*
G01*
X141937500Y-57525000D01*
G75*
G02*
X141675000Y-57262500I0J262500D01*
G01*
G37*
%TD*%
%TO.C,R7*%
G36*
G01*
X149075000Y-109437500D02*
X149075000Y-109962500D01*
G75*
G02*
X148812500Y-110225000I-262500J0D01*
G01*
X148187500Y-110225000D01*
G75*
G02*
X147925000Y-109962500I0J262500D01*
G01*
X147925000Y-109437500D01*
G75*
G02*
X148187500Y-109175000I262500J0D01*
G01*
X148812500Y-109175000D01*
G75*
G02*
X149075000Y-109437500I0J-262500D01*
G01*
G37*
G36*
G01*
X150825000Y-109437500D02*
X150825000Y-109962500D01*
G75*
G02*
X150562500Y-110225000I-262500J0D01*
G01*
X149937500Y-110225000D01*
G75*
G02*
X149675000Y-109962500I0J262500D01*
G01*
X149675000Y-109437500D01*
G75*
G02*
X149937500Y-109175000I262500J0D01*
G01*
X150562500Y-109175000D01*
G75*
G02*
X150825000Y-109437500I0J-262500D01*
G01*
G37*
%TD*%
%TO.C,R6*%
G36*
G01*
X149725000Y-105962500D02*
X149725000Y-105437500D01*
G75*
G02*
X149987500Y-105175000I262500J0D01*
G01*
X150612500Y-105175000D01*
G75*
G02*
X150875000Y-105437500I0J-262500D01*
G01*
X150875000Y-105962500D01*
G75*
G02*
X150612500Y-106225000I-262500J0D01*
G01*
X149987500Y-106225000D01*
G75*
G02*
X149725000Y-105962500I0J262500D01*
G01*
G37*
G36*
G01*
X147975000Y-105962500D02*
X147975000Y-105437500D01*
G75*
G02*
X148237500Y-105175000I262500J0D01*
G01*
X148862500Y-105175000D01*
G75*
G02*
X149125000Y-105437500I0J-262500D01*
G01*
X149125000Y-105962500D01*
G75*
G02*
X148862500Y-106225000I-262500J0D01*
G01*
X148237500Y-106225000D01*
G75*
G02*
X147975000Y-105962500I0J262500D01*
G01*
G37*
%TD*%
%TO.C,R5*%
G36*
G01*
X179825000Y-103162500D02*
X179825000Y-102637500D01*
G75*
G02*
X180087500Y-102375000I262500J0D01*
G01*
X180712500Y-102375000D01*
G75*
G02*
X180975000Y-102637500I0J-262500D01*
G01*
X180975000Y-103162500D01*
G75*
G02*
X180712500Y-103425000I-262500J0D01*
G01*
X180087500Y-103425000D01*
G75*
G02*
X179825000Y-103162500I0J262500D01*
G01*
G37*
G36*
G01*
X178075000Y-103162500D02*
X178075000Y-102637500D01*
G75*
G02*
X178337500Y-102375000I262500J0D01*
G01*
X178962500Y-102375000D01*
G75*
G02*
X179225000Y-102637500I0J-262500D01*
G01*
X179225000Y-103162500D01*
G75*
G02*
X178962500Y-103425000I-262500J0D01*
G01*
X178337500Y-103425000D01*
G75*
G02*
X178075000Y-103162500I0J262500D01*
G01*
G37*
%TD*%
%TO.C,R4*%
G36*
G01*
X179825000Y-104962500D02*
X179825000Y-104437500D01*
G75*
G02*
X180087500Y-104175000I262500J0D01*
G01*
X180712500Y-104175000D01*
G75*
G02*
X180975000Y-104437500I0J-262500D01*
G01*
X180975000Y-104962500D01*
G75*
G02*
X180712500Y-105225000I-262500J0D01*
G01*
X180087500Y-105225000D01*
G75*
G02*
X179825000Y-104962500I0J262500D01*
G01*
G37*
G36*
G01*
X178075000Y-104962500D02*
X178075000Y-104437500D01*
G75*
G02*
X178337500Y-104175000I262500J0D01*
G01*
X178962500Y-104175000D01*
G75*
G02*
X179225000Y-104437500I0J-262500D01*
G01*
X179225000Y-104962500D01*
G75*
G02*
X178962500Y-105225000I-262500J0D01*
G01*
X178337500Y-105225000D01*
G75*
G02*
X178075000Y-104962500I0J262500D01*
G01*
G37*
%TD*%
%TO.C,R3*%
G36*
G01*
X172375000Y-62737500D02*
X172375000Y-63262500D01*
G75*
G02*
X172112500Y-63525000I-262500J0D01*
G01*
X171487500Y-63525000D01*
G75*
G02*
X171225000Y-63262500I0J262500D01*
G01*
X171225000Y-62737500D01*
G75*
G02*
X171487500Y-62475000I262500J0D01*
G01*
X172112500Y-62475000D01*
G75*
G02*
X172375000Y-62737500I0J-262500D01*
G01*
G37*
G36*
G01*
X174125000Y-62737500D02*
X174125000Y-63262500D01*
G75*
G02*
X173862500Y-63525000I-262500J0D01*
G01*
X173237500Y-63525000D01*
G75*
G02*
X172975000Y-63262500I0J262500D01*
G01*
X172975000Y-62737500D01*
G75*
G02*
X173237500Y-62475000I262500J0D01*
G01*
X173862500Y-62475000D01*
G75*
G02*
X174125000Y-62737500I0J-262500D01*
G01*
G37*
%TD*%
%TO.C,R2*%
G36*
G01*
X172375000Y-60737500D02*
X172375000Y-61262500D01*
G75*
G02*
X172112500Y-61525000I-262500J0D01*
G01*
X171487500Y-61525000D01*
G75*
G02*
X171225000Y-61262500I0J262500D01*
G01*
X171225000Y-60737500D01*
G75*
G02*
X171487500Y-60475000I262500J0D01*
G01*
X172112500Y-60475000D01*
G75*
G02*
X172375000Y-60737500I0J-262500D01*
G01*
G37*
G36*
G01*
X174125000Y-60737500D02*
X174125000Y-61262500D01*
G75*
G02*
X173862500Y-61525000I-262500J0D01*
G01*
X173237500Y-61525000D01*
G75*
G02*
X172975000Y-61262500I0J262500D01*
G01*
X172975000Y-60737500D01*
G75*
G02*
X173237500Y-60475000I262500J0D01*
G01*
X173862500Y-60475000D01*
G75*
G02*
X174125000Y-60737500I0J-262500D01*
G01*
G37*
%TD*%
%TO.C,R1*%
G36*
G01*
X166537500Y-106725000D02*
X167062500Y-106725000D01*
G75*
G02*
X167325000Y-106987500I0J-262500D01*
G01*
X167325000Y-107612500D01*
G75*
G02*
X167062500Y-107875000I-262500J0D01*
G01*
X166537500Y-107875000D01*
G75*
G02*
X166275000Y-107612500I0J262500D01*
G01*
X166275000Y-106987500D01*
G75*
G02*
X166537500Y-106725000I262500J0D01*
G01*
G37*
G36*
G01*
X166537500Y-104975000D02*
X167062500Y-104975000D01*
G75*
G02*
X167325000Y-105237500I0J-262500D01*
G01*
X167325000Y-105862500D01*
G75*
G02*
X167062500Y-106125000I-262500J0D01*
G01*
X166537500Y-106125000D01*
G75*
G02*
X166275000Y-105862500I0J262500D01*
G01*
X166275000Y-105237500D01*
G75*
G02*
X166537500Y-104975000I262500J0D01*
G01*
G37*
%TD*%
D22*
%TO.C,J2*%
X136850000Y-95750000D03*
X136850000Y-95250000D03*
X136850000Y-94750000D03*
X136850000Y-94250000D03*
X136850000Y-93750000D03*
X136850000Y-93250000D03*
X136850000Y-92750000D03*
X136850000Y-92250000D03*
X136850000Y-91750000D03*
X136850000Y-91250000D03*
X136850000Y-90750000D03*
X136850000Y-90250000D03*
X136850000Y-89750000D03*
X136850000Y-89250000D03*
X136850000Y-88750000D03*
X136850000Y-88250000D03*
X136850000Y-87750000D03*
X136850000Y-87250000D03*
X136850000Y-86750000D03*
X136850000Y-86250000D03*
X136850000Y-85750000D03*
X136850000Y-85250000D03*
X136850000Y-84750000D03*
X136850000Y-84250000D03*
X136850000Y-83750000D03*
X136850000Y-83250000D03*
X136850000Y-82750000D03*
X136850000Y-82250000D03*
X136850000Y-81750000D03*
X136850000Y-81250000D03*
X136850000Y-80750000D03*
X136850000Y-80250000D03*
X136850000Y-79750000D03*
X136850000Y-79250000D03*
X136850000Y-78750000D03*
X136850000Y-78250000D03*
X136850000Y-77750000D03*
X136850000Y-77250000D03*
X136850000Y-76750000D03*
X136850000Y-76250000D03*
D23*
X133600000Y-74350000D03*
X133600000Y-97650000D03*
%TD*%
D24*
%TO.C,J1*%
X189637500Y-85500000D03*
X189637500Y-92500000D03*
D25*
X186937500Y-86500000D03*
D26*
X186937500Y-89000000D03*
X186937500Y-88350000D03*
X186937500Y-87700000D03*
X186937500Y-90300000D03*
X186937500Y-89650000D03*
D25*
X186937500Y-91500000D03*
%TD*%
%TO.C,D3*%
G36*
G01*
X149725000Y-107962500D02*
X149725000Y-107437500D01*
G75*
G02*
X149987500Y-107175000I262500J0D01*
G01*
X150612500Y-107175000D01*
G75*
G02*
X150875000Y-107437500I0J-262500D01*
G01*
X150875000Y-107962500D01*
G75*
G02*
X150612500Y-108225000I-262500J0D01*
G01*
X149987500Y-108225000D01*
G75*
G02*
X149725000Y-107962500I0J262500D01*
G01*
G37*
G36*
G01*
X147975000Y-107962500D02*
X147975000Y-107437500D01*
G75*
G02*
X148237500Y-107175000I262500J0D01*
G01*
X148862500Y-107175000D01*
G75*
G02*
X149125000Y-107437500I0J-262500D01*
G01*
X149125000Y-107962500D01*
G75*
G02*
X148862500Y-108225000I-262500J0D01*
G01*
X148237500Y-108225000D01*
G75*
G02*
X147975000Y-107962500I0J262500D01*
G01*
G37*
%TD*%
%TO.C,D2*%
G36*
G01*
X179825000Y-108962500D02*
X179825000Y-108437500D01*
G75*
G02*
X180087500Y-108175000I262500J0D01*
G01*
X180712500Y-108175000D01*
G75*
G02*
X180975000Y-108437500I0J-262500D01*
G01*
X180975000Y-108962500D01*
G75*
G02*
X180712500Y-109225000I-262500J0D01*
G01*
X180087500Y-109225000D01*
G75*
G02*
X179825000Y-108962500I0J262500D01*
G01*
G37*
G36*
G01*
X178075000Y-108962500D02*
X178075000Y-108437500D01*
G75*
G02*
X178337500Y-108175000I262500J0D01*
G01*
X178962500Y-108175000D01*
G75*
G02*
X179225000Y-108437500I0J-262500D01*
G01*
X179225000Y-108962500D01*
G75*
G02*
X178962500Y-109225000I-262500J0D01*
G01*
X178337500Y-109225000D01*
G75*
G02*
X178075000Y-108962500I0J262500D01*
G01*
G37*
%TD*%
%TO.C,D1*%
G36*
G01*
X179825000Y-106962500D02*
X179825000Y-106437500D01*
G75*
G02*
X180087500Y-106175000I262500J0D01*
G01*
X180712500Y-106175000D01*
G75*
G02*
X180975000Y-106437500I0J-262500D01*
G01*
X180975000Y-106962500D01*
G75*
G02*
X180712500Y-107225000I-262500J0D01*
G01*
X180087500Y-107225000D01*
G75*
G02*
X179825000Y-106962500I0J262500D01*
G01*
G37*
G36*
G01*
X178075000Y-106962500D02*
X178075000Y-106437500D01*
G75*
G02*
X178337500Y-106175000I262500J0D01*
G01*
X178962500Y-106175000D01*
G75*
G02*
X179225000Y-106437500I0J-262500D01*
G01*
X179225000Y-106962500D01*
G75*
G02*
X178962500Y-107225000I-262500J0D01*
G01*
X178337500Y-107225000D01*
G75*
G02*
X178075000Y-106962500I0J262500D01*
G01*
G37*
%TD*%
%TO.C,C10*%
G36*
G01*
X149775000Y-98137500D02*
X149775000Y-98662500D01*
G75*
G02*
X149512500Y-98925000I-262500J0D01*
G01*
X148887500Y-98925000D01*
G75*
G02*
X148625000Y-98662500I0J262500D01*
G01*
X148625000Y-98137500D01*
G75*
G02*
X148887500Y-97875000I262500J0D01*
G01*
X149512500Y-97875000D01*
G75*
G02*
X149775000Y-98137500I0J-262500D01*
G01*
G37*
G36*
G01*
X151525000Y-98137500D02*
X151525000Y-98662500D01*
G75*
G02*
X151262500Y-98925000I-262500J0D01*
G01*
X150637500Y-98925000D01*
G75*
G02*
X150375000Y-98662500I0J262500D01*
G01*
X150375000Y-98137500D01*
G75*
G02*
X150637500Y-97875000I262500J0D01*
G01*
X151262500Y-97875000D01*
G75*
G02*
X151525000Y-98137500I0J-262500D01*
G01*
G37*
%TD*%
%TO.C,C9*%
G36*
G01*
X149775000Y-96137500D02*
X149775000Y-96662500D01*
G75*
G02*
X149512500Y-96925000I-262500J0D01*
G01*
X148887500Y-96925000D01*
G75*
G02*
X148625000Y-96662500I0J262500D01*
G01*
X148625000Y-96137500D01*
G75*
G02*
X148887500Y-95875000I262500J0D01*
G01*
X149512500Y-95875000D01*
G75*
G02*
X149775000Y-96137500I0J-262500D01*
G01*
G37*
G36*
G01*
X151525000Y-96137500D02*
X151525000Y-96662500D01*
G75*
G02*
X151262500Y-96925000I-262500J0D01*
G01*
X150637500Y-96925000D01*
G75*
G02*
X150375000Y-96662500I0J262500D01*
G01*
X150375000Y-96137500D01*
G75*
G02*
X150637500Y-95875000I262500J0D01*
G01*
X151262500Y-95875000D01*
G75*
G02*
X151525000Y-96137500I0J-262500D01*
G01*
G37*
%TD*%
%TO.C,C8*%
G36*
G01*
X151400000Y-85458333D02*
X151400000Y-83541667D01*
G75*
G02*
X151666667Y-83275000I266667J0D01*
G01*
X152733333Y-83275000D01*
G75*
G02*
X153000000Y-83541667I0J-266667D01*
G01*
X153000000Y-85458333D01*
G75*
G02*
X152733333Y-85725000I-266667J0D01*
G01*
X151666667Y-85725000D01*
G75*
G02*
X151400000Y-85458333I0J266667D01*
G01*
G37*
G36*
G01*
X148150000Y-85458333D02*
X148150000Y-83541667D01*
G75*
G02*
X148416667Y-83275000I266667J0D01*
G01*
X149483333Y-83275000D01*
G75*
G02*
X149750000Y-83541667I0J-266667D01*
G01*
X149750000Y-85458333D01*
G75*
G02*
X149483333Y-85725000I-266667J0D01*
G01*
X148416667Y-85725000D01*
G75*
G02*
X148150000Y-85458333I0J266667D01*
G01*
G37*
%TD*%
%TO.C,C7*%
G36*
G01*
X143425000Y-65262500D02*
X143425000Y-64737500D01*
G75*
G02*
X143687500Y-64475000I262500J0D01*
G01*
X144312500Y-64475000D01*
G75*
G02*
X144575000Y-64737500I0J-262500D01*
G01*
X144575000Y-65262500D01*
G75*
G02*
X144312500Y-65525000I-262500J0D01*
G01*
X143687500Y-65525000D01*
G75*
G02*
X143425000Y-65262500I0J262500D01*
G01*
G37*
G36*
G01*
X141675000Y-65262500D02*
X141675000Y-64737500D01*
G75*
G02*
X141937500Y-64475000I262500J0D01*
G01*
X142562500Y-64475000D01*
G75*
G02*
X142825000Y-64737500I0J-262500D01*
G01*
X142825000Y-65262500D01*
G75*
G02*
X142562500Y-65525000I-262500J0D01*
G01*
X141937500Y-65525000D01*
G75*
G02*
X141675000Y-65262500I0J262500D01*
G01*
G37*
%TD*%
%TO.C,C6*%
G36*
G01*
X177055000Y-95262500D02*
X177055000Y-94737500D01*
G75*
G02*
X177317500Y-94475000I262500J0D01*
G01*
X177942500Y-94475000D01*
G75*
G02*
X178205000Y-94737500I0J-262500D01*
G01*
X178205000Y-95262500D01*
G75*
G02*
X177942500Y-95525000I-262500J0D01*
G01*
X177317500Y-95525000D01*
G75*
G02*
X177055000Y-95262500I0J262500D01*
G01*
G37*
G36*
G01*
X175305000Y-95262500D02*
X175305000Y-94737500D01*
G75*
G02*
X175567500Y-94475000I262500J0D01*
G01*
X176192500Y-94475000D01*
G75*
G02*
X176455000Y-94737500I0J-262500D01*
G01*
X176455000Y-95262500D01*
G75*
G02*
X176192500Y-95525000I-262500J0D01*
G01*
X175567500Y-95525000D01*
G75*
G02*
X175305000Y-95262500I0J262500D01*
G01*
G37*
%TD*%
%TO.C,C5*%
G36*
G01*
X178600000Y-98958333D02*
X178600000Y-97041667D01*
G75*
G02*
X178866667Y-96775000I266667J0D01*
G01*
X179933333Y-96775000D01*
G75*
G02*
X180200000Y-97041667I0J-266667D01*
G01*
X180200000Y-98958333D01*
G75*
G02*
X179933333Y-99225000I-266667J0D01*
G01*
X178866667Y-99225000D01*
G75*
G02*
X178600000Y-98958333I0J266667D01*
G01*
G37*
G36*
G01*
X175350000Y-98958333D02*
X175350000Y-97041667D01*
G75*
G02*
X175616667Y-96775000I266667J0D01*
G01*
X176683333Y-96775000D01*
G75*
G02*
X176950000Y-97041667I0J-266667D01*
G01*
X176950000Y-98958333D01*
G75*
G02*
X176683333Y-99225000I-266667J0D01*
G01*
X175616667Y-99225000D01*
G75*
G02*
X175350000Y-98958333I0J266667D01*
G01*
G37*
%TD*%
%TO.C,C4*%
G36*
G01*
X183262500Y-67625000D02*
X182737500Y-67625000D01*
G75*
G02*
X182475000Y-67362500I0J262500D01*
G01*
X182475000Y-66737500D01*
G75*
G02*
X182737500Y-66475000I262500J0D01*
G01*
X183262500Y-66475000D01*
G75*
G02*
X183525000Y-66737500I0J-262500D01*
G01*
X183525000Y-67362500D01*
G75*
G02*
X183262500Y-67625000I-262500J0D01*
G01*
G37*
G36*
G01*
X183262500Y-69375000D02*
X182737500Y-69375000D01*
G75*
G02*
X182475000Y-69112500I0J262500D01*
G01*
X182475000Y-68487500D01*
G75*
G02*
X182737500Y-68225000I262500J0D01*
G01*
X183262500Y-68225000D01*
G75*
G02*
X183525000Y-68487500I0J-262500D01*
G01*
X183525000Y-69112500D01*
G75*
G02*
X183262500Y-69375000I-262500J0D01*
G01*
G37*
%TD*%
%TO.C,C3*%
G36*
G01*
X176455000Y-84737500D02*
X176455000Y-85262500D01*
G75*
G02*
X176192500Y-85525000I-262500J0D01*
G01*
X175567500Y-85525000D01*
G75*
G02*
X175305000Y-85262500I0J262500D01*
G01*
X175305000Y-84737500D01*
G75*
G02*
X175567500Y-84475000I262500J0D01*
G01*
X176192500Y-84475000D01*
G75*
G02*
X176455000Y-84737500I0J-262500D01*
G01*
G37*
G36*
G01*
X178205000Y-84737500D02*
X178205000Y-85262500D01*
G75*
G02*
X177942500Y-85525000I-262500J0D01*
G01*
X177317500Y-85525000D01*
G75*
G02*
X177055000Y-85262500I0J262500D01*
G01*
X177055000Y-84737500D01*
G75*
G02*
X177317500Y-84475000I262500J0D01*
G01*
X177942500Y-84475000D01*
G75*
G02*
X178205000Y-84737500I0J-262500D01*
G01*
G37*
%TD*%
%TO.C,C2*%
G36*
G01*
X172825000Y-110962500D02*
X172825000Y-110437500D01*
G75*
G02*
X173087500Y-110175000I262500J0D01*
G01*
X173712500Y-110175000D01*
G75*
G02*
X173975000Y-110437500I0J-262500D01*
G01*
X173975000Y-110962500D01*
G75*
G02*
X173712500Y-111225000I-262500J0D01*
G01*
X173087500Y-111225000D01*
G75*
G02*
X172825000Y-110962500I0J262500D01*
G01*
G37*
G36*
G01*
X171075000Y-110962500D02*
X171075000Y-110437500D01*
G75*
G02*
X171337500Y-110175000I262500J0D01*
G01*
X171962500Y-110175000D01*
G75*
G02*
X172225000Y-110437500I0J-262500D01*
G01*
X172225000Y-110962500D01*
G75*
G02*
X171962500Y-111225000I-262500J0D01*
G01*
X171337500Y-111225000D01*
G75*
G02*
X171075000Y-110962500I0J262500D01*
G01*
G37*
%TD*%
%TO.C,C1*%
G36*
G01*
X176900000Y-87041667D02*
X176900000Y-88958333D01*
G75*
G02*
X176633333Y-89225000I-266667J0D01*
G01*
X175566667Y-89225000D01*
G75*
G02*
X175300000Y-88958333I0J266667D01*
G01*
X175300000Y-87041667D01*
G75*
G02*
X175566667Y-86775000I266667J0D01*
G01*
X176633333Y-86775000D01*
G75*
G02*
X176900000Y-87041667I0J-266667D01*
G01*
G37*
G36*
G01*
X180150000Y-87041667D02*
X180150000Y-88958333D01*
G75*
G02*
X179883333Y-89225000I-266667J0D01*
G01*
X178816667Y-89225000D01*
G75*
G02*
X178550000Y-88958333I0J266667D01*
G01*
X178550000Y-87041667D01*
G75*
G02*
X178816667Y-86775000I266667J0D01*
G01*
X179883333Y-86775000D01*
G75*
G02*
X180150000Y-87041667I0J-266667D01*
G01*
G37*
%TD*%
M02*
