M48
; DRILL file {KiCad (5.1.6)-1} date 08/30/20 19:00:46
; FORMAT={-:-/ absolute / inch / decimal}
; #@! TF.CreationDate,2020-08-30T19:00:46+08:00
; #@! TF.GenerationSoftware,Kicad,Pcbnew,(5.1.6)-1
; #@! TF.FileFunction,Plated,1,2,PTH
FMAT,2
INCH
T1C0.0100
T2C0.0157
T3C0.0197
T4C0.0236
T5C0.0335
T6C0.1260
%
G90
G05
T1
X5.4843Y-3.5827
X5.4843Y-3.7205
X5.5372Y-3.3189
X5.5394Y-4.2598
X5.5394Y-2.5709
X5.6024Y-2.7559
X5.64Y-3.1125
X5.6417Y-3.1772
X5.6417Y-4.2402
X5.7047Y-2.815
X5.7441Y-2.9331
X5.9995Y-2.5399
X6.3661Y-2.9331
X6.374Y-4.2402
X6.6457Y-4.3031
X6.6732Y-4.3031
X6.7323Y-3.0315
X6.8622Y-2.6772
X6.9134Y-2.6811
X6.9685Y-3.1496
X7.0079Y-3.1496
X7.0472Y-3.1496
X7.1496Y-3.5276
X7.1535Y-3.4882
X7.1654Y-3.0827
X7.3622Y-2.6378
X7.3622Y-2.6772
X7.3622Y-2.7165
T2
X6.8189Y-4.5827
X6.8583Y-4.5827
X6.8976Y-4.5827
X6.937Y-4.5827
X6.9646Y-4.1142
X7.0748Y-3.6575
X7.0906Y-3.5551
T3
X7.2677Y-4.8425
X7.2954Y-4.7757
X7.2954Y-4.9093
X7.3622Y-4.748
X7.3622Y-4.937
X7.429Y-4.7757
X7.429Y-4.9093
X7.4567Y-4.8425
X3.9213Y-4.8425
X3.9489Y-4.7757
X3.9489Y-4.9093
X4.0157Y-4.748
X4.0157Y-4.937
X4.0826Y-4.7757
X4.0826Y-4.9093
X4.1102Y-4.8425
X7.2677Y-1.9291
X7.2954Y-1.8623
X7.2954Y-1.9959
X7.3622Y-1.8346
X7.3622Y-2.0236
X7.429Y-1.8623
X7.429Y-1.9959
X7.4567Y-1.9291
X3.9213Y-1.9291
X3.9489Y-1.8623
X3.9489Y-1.9959
X4.0157Y-1.8346
X4.0157Y-2.0236
X4.0826Y-1.8623
X4.0826Y-1.9959
X4.1102Y-1.9291
T5
X7.3597Y-3.4055
X7.3597Y-3.6024
T6
X7.3622Y-4.8425
X4.0157Y-4.8425
X7.3622Y-1.9291
X4.0157Y-1.9291
T4
G00X7.4523Y-3.3661
M15
G01X7.4798Y-3.3661
M16
G05
G00X7.4798Y-3.6417
M15
G01X7.4523Y-3.6417
M16
G05
T0
M30
